<svg id="Laag_2" data-name="Laag 2" xmlns="http://www.w3.org/2000/svg" viewBox="0 0 161.46 341.9"><defs><style>.cls-1{fill:#1d1d1b;}</style></defs><title>pop</title><path class="cls-1" d="M160.59,141.7a11.22,11.22,0,0,0-4.36-6.86l-31.44-23.17a11.33,11.33,0,0,0-9.73-1.78,11.94,11.94,0,0,0-6.53-2H91.85V92.63a46.79,46.79,0,1,0-22.68-.13v15.43H51.86a12.14,12.14,0,0,0-3.63.57,11.37,11.37,0,0,0-10.87,1.41L5.92,133.08a11.22,11.22,0,0,0-4.36,6.86,11.1,11.1,0,0,0-.45,3.12v60.85a11.34,11.34,0,0,0,22.68,0V148.08l16.07-11.85v71.12A12,12,0,0,0,32,218.58V330.1a12,12,0,0,0,12,12H56.59a12,12,0,0,0,12-12V240.17H91.73V330.1a12,12,0,0,0,12,12h12.56a12,12,0,0,0,12-12V218.58a12,12,0,0,0-7.76-11.21V136.7l17.84,13.14v55.83a11.34,11.34,0,1,0,22.67,0V144.82A11.1,11.1,0,0,0,160.59,141.7Z"/></svg>